<?xml version="1.0" encoding="utf-8"?>
<svg version="1.1" id="Layer_1" xmlns="http://www.w3.org/2000/svg" xmlns:xlink="http://www.w3.org/1999/xlink" x="0px" y="0px"
	 viewBox="0 0 1337.168 1654.725" enable-background="new 0 0 1337.168 1654.725" xml:space="preserve">
<g id="Man_Head_Silhouette">
</g>
<path d="M759.246,1389.643l50.595,0.256c-0.085-3.446-0.248-6.883-0.505-10.308h496.274c-1.346-4.329-3.509-8.487-5.941-10.508
	c-1.122-0.928-2.037-2.522-2.037-3.519c0-1.011-0.845-3.145-1.898-4.724c-1.039-1.593-1.815-4.06-1.718-5.473
	c0.061-0.958-0.985-3.588-2.808-7.331H804.448c-2.515-10.625-5.908-21.144-10.185-31.556h479.152
	c-6.686-10.989-13.942-22.245-20.021-30.775c-0.182-0.256-0.378-0.521-0.565-0.781H775.867
	c-12.132-12.666-29.018-20.205-47.102-20.322c-44.547-0.29-89.048-0.969-133.322-0.969c-11.879-2.401-22.363-5.801-31.688-10.265
	h662.694c-9.393-10.21-19.986-21.003-31.009-31.556H525.834c-2.191-2.979-4.281-6.11-6.275-9.406
	c-4.101-6.867-5.965-14.305-6.295-22.15h650.716c-0.269-0.978-0.416-2.038-0.573-3.351c-0.513-4.392-1.954-7.8-4.697-11.125
	c-2.175-2.632-3.948-5.459-3.948-6.276c0-2.043-2.77-6.946-5.702-10.803H518.04c2.948-10.32,6.838-20.93,10.484-31.556h600.393
	c-4.171-9.194-8.709-20.07-13.208-31.556H534.686c-2.075-11.583-10.027-22.005-18.363-31.556h587.683
	c-3.913-11.169-7.456-22.003-10.27-31.556H509.469c8.105-9.763,20.56-18.585,13.361-24.26c-3.23-2.607-6.549-4.944-9.693-7.296
	h573.949c-0.24-2.928-1.021-8.313-1.932-13.138c-1.067-5.708-2.466-13.896-3.104-18.178c-0.011-0.073-0.024-0.163-0.035-0.24
	H498.267c4.086-10.653,16.103-18.907,18.375-31.556h560.732c-0.986-8.39-1.799-18.886-2.439-31.556H524.37
	c-0.076-2.864-0.825-5.504-2.63-7.761c-10.165-12.354-26.866-8.719-42.116-13.807c-5.101-3.132-11.941-6.265-18.725-9.988h612.897
	c-0.237-9.68-0.409-20.206-0.521-31.556H435.169c-0.028-1.919,0.135-3.932,0.52-6.052c1.319-7.347,4.854-15.958,10.031-25.504
	h627.402c-0.003-9.427,0.027-19.312,0.09-29.672c0.004-0.624,0.007-1.257,0.011-1.884H465.924
	c7.202-10.095,15.285-20.693,23.834-31.556h583.596c0.026-10.416,0.036-20.97,0.032-31.556H515.079
	c8.566-10.557,17.184-21.144,25.493-31.556h532.762c-0.015-5.122-0.032-10.227-0.053-15.299c3.02-0.222,2.632-0.734,0-1.316
	c-0.021-5.017-0.045-10-0.071-14.941H564.998c6.706-9.047,12.834-17.764,18.104-25.992c-0.845-1.861-1.616-3.714-2.349-5.563
	h492.245c-0.089-10.962-0.191-21.532-0.306-31.556H573.366c-0.522-7.15-0.282-14.263,0.656-21.377
	c0.453-3.396,0.964-6.789,1.521-10.179h496.719c-0.197-12.109-0.413-22.775-0.646-31.556H582.262
	c2.787-10.609,6.097-21.141,9.92-31.556h477.406c-0.807-5.671-1.805-12.702-2.556-18.062c-0.644-4.593-1.336-9.123-2.056-13.494
	H605.541c5.163-10.717,10.903-21.252,17.216-31.556h435.762c-0.904-3.335-1.753-5.926-2.501-7.557
	c-0.651-1.427-2.425-6.387-3.921-11.042c-1.292-3.981-3.011-8.361-5.047-12.957H644.475c8.386-10.897,17.483-21.439,27.289-31.556
	h358.308c-6.051-9.627-12.471-18.472-18.335-24.928c-2.473-2.729-4.404-4.885-5.927-6.628H706.455
	c14.144-11.344,29.38-21.908,45.703-31.556H974.07c-10.341-8.774-35.159-27.461-36.886-27.461c-0.196,0-3.045-1.798-6.468-4.095
	H818.282c23.761-8.933,49.211-16.163,76.319-21.444c-6.665-3.466-25.202-11.772-32.746-14.64c-4.281-1.635-14.007-5.542-21.6-8.673
	c-7.606-3.131-14.631-5.694-15.628-5.694c-10.322,0-3.159-49.739,11.264-78.142c19.397-38.198,21.42-59.576,7.662-81.065
	c-12.372-19.341-26.851-28.569-55.738-35.538c-9.449-2.286-204.747-3.616-225.696-1.552c-17.984,1.787-35.08,7.011-42.562,13.024
	c-2.757,2.217-5.459,4.018-6.013,4.018c-3.284,0-17.776,17.942-22.819,28.278l-5.556,11.347v14.936
	c0,14.686,2.66,28.527,7.842,40.913c11.43,27.308,15.462,44.654,14.548,62.596c-0.596,11.846-0.402,13.481,1.787,15.476
	c3.63,3.27,3.159,3.838-4.669,5.583c-3.921,0.887-10.779,3.076-15.254,4.877c-4.489,1.801-10.197,3.865-12.691,4.6
	c-6.734,1.981-34.679,15.808-42.646,21.115c-3.824,2.535-7.537,4.6-8.271,4.6c-2.979,0-36.244,22.486-49.351,33.363
	c-26.352,21.891-65.409,74.401-71.796,96.527c-0.513,1.787-2.951,7.537-5.39,12.788c-11.5,24.606-22.805,63.414-26.421,90.611
	c-5.57,42.008-6.553,91.927-3.159,160.287c1.912,38.544,2.147,128.421,0.43,168.198c-1.607,37.353-6.041,79.084-14.063,132.494
	c-4.073,27.059-18.372,88.921-22.819,98.716c-0.97,2.134-2.923,7.399-4.337,11.68c-2.923,8.895-9.712,25.465-16.252,39.667
	c-2.452,5.334-5.764,12.913-7.343,16.848c-1.579,3.921-3.394,8.008-4.046,9.089c-0.651,1.067-2.632,4.697-4.42,8.05
	c-1.787,3.353-6.47,9.297-10.405,13.204c-4.184,4.143-7.163,8.23-7.163,9.837c0,1.635-3.131,5.805-7.786,10.363
	c-5.75,5.625-7.8,8.562-7.8,11.167c0,2.231-1.302,4.656-3.575,6.609c-1.954,1.69-9.989,8.465-17.859,15.06
	c-22.5,18.898-36.619,33.917-56.459,60.061c-23.969,31.617-43.74,70.078-47.425,92.301c-0.471,2.854-2.605,9.13-4.738,13.924
	c-2.438,5.459-3.741,10.336-3.491,12.996l0.416,4.254l44.807,0.235c24.648,0.139,147.263,0.402,272.484,0.61
	c204.179,0.319,227.58,0.568,226.874,2.355c-2.203,5.625-0.651,71.574,1.857,79.652c5.888,18.87,26.851,50.279,33.557,50.279
	c0.928,0,1.676,0.485,1.676,1.081c0,0.582,2.702,2.411,5.999,4.06c6.733,3.367,6.359,0.803,3.2,21.489
	c-0.651,4.295-2.411,16.861-3.893,27.932c-1.497,11.07-3.284,22.763-3.977,25.978c-0.693,3.214-1.635,9.352-2.078,13.633
	c-0.443,4.295-0.901,8.382-1.011,9.103c-0.097,0.707,3.02,1.635,6.955,2.064c20.657,2.231,94.186,0.61,93.853-2.064
	c-0.166-1.441-0.9-7.274-1.635-12.996c-0.734-5.708-1.912-18.275-2.605-27.932c-0.707-9.643-1.856-23.29-2.577-30.328
	c-1.663-16.238-1.663-24.218-0.014-24.218c1.136,0,9.906-5.874,17.471-11.693c8.466-6.498,19.12-17.97,21.572-23.179
	c1.552-3.325,4.766-10.128,7.135-15.13c5.888-12.428,10.183-48.09,9.352-77.629L759.246,1389.643z"/>
</svg>
